<svg xmlns="http://www.w3.org/2000/svg" width="160" height="160" viewBox="0 0 160 160" role="img" aria-label="AutoMount icon">
  <defs>
    <linearGradient id="bg" x1="0" x2="0" y1="0" y2="1">
      <stop offset="0" stop-color="#122640"/>
      <stop offset="1" stop-color="#0c1726"/>
    </linearGradient>
    <linearGradient id="accent" x1="0" x2="1" y1="0" y2="1">
      <stop offset="0" stop-color="#5cc3ff"/>
      <stop offset="1" stop-color="#4ad3b3"/>
    </linearGradient>
    <linearGradient id="drive" x1="0" x2="1" y1="0" y2="0">
      <stop offset="0" stop-color="#f3f7ff"/>
      <stop offset="1" stop-color="#c8d6ff"/>
    </linearGradient>
    <filter id="shadow" x="-10%" y="-10%" width="120%" height="120%">
      <feDropShadow dx="0" dy="4" stdDeviation="6" flood-color="#000" flood-opacity="0.18"/>
    </filter>
  </defs>
  <rect width="160" height="160" rx="24" fill="url(#bg)"/>
  <g filter="url(#shadow)">
    <rect x="30" y="86" width="100" height="40" rx="10" fill="#0f1f33" opacity="0.8"/>
    <rect x="24" y="40" width="112" height="70" rx="14" fill="url(#drive)"/>
    <rect x="34" y="56" width="92" height="16" rx="8" fill="#0f1f33" opacity="0.12"/>
    <circle cx="52" cy="98" r="6" fill="#0f1f33" opacity="0.6"/>
    <circle cx="108" cy="98" r="6" fill="#0f1f33" opacity="0.6"/>
  </g>
  <path d="M80 54c14 0 26 11 26 25s-12 25-26 25-26-11-26-25 12-25 26-25z" fill="#0f1f33" opacity="0.2"/>
  <path d="M80 48c14 0 26 11 26 25s-12 25-26 25-26-11-26-25 12-25 26-25z" fill="#0f1f33"/>
  <path d="M80 56c9.4 0 17 7.3 17 16.3 0 9-7.6 16.3-17 16.3s-17-7.3-17-16.3C63 63.3 70.6 56 80 56z" fill="url(#accent)"/>
  <path d="M80 63l10 12h-6v12h-8V75h-6z" fill="#0c1726"/>
</svg>
